# xmcd CD database file
#
# Track frame offsets:
#	225
#	19782
#	36564
#	49652
#	70865
#	99907
#	121883
#	134428
#	148493
#	161918
#	172745
#	192817
#	206638
#
# Disc length: 2993 seconds
#
# Revision: 0
# Processed by: cddbd v1.5.2PL0 Copyright (c) Steve Scherf et al.
# Submitted via: CDex 1.51
#
DISCID=bd0bae0d
DTITLE=Cheryl Arena - Blues Got Me
DYEAR=2003
DGENRE=Blues
TTITLE0=Blow My Blues Away
TTITLE1=Love Gone Wrong
TTITLE2=Shave It
TTITLE3=Listen To What I Say
TTITLE4=Blues Got Me
TTITLE5=It Aint Right
TTITLE6=About To Break My Heart
TTITLE7=Living In The Moment
TTITLE8=Baby
TTITLE9=Any Day Now
TTITLE10=He Aint No Prince
TTITLE11=You Better Change
TTITLE12=Grazing In The Grass
EXTD=YEAR: 2003
EXTT0=
EXTT1=
EXTT2=
EXTT3=
EXTT4=
EXTT5=
EXTT6=
EXTT7=
EXTT8=
EXTT9=
EXTT10=
EXTT11=
EXTT12=
PLAYORDER=
